<svg width="164" height="42" viewBox="0 0 164 42" fill="none" xmlns="http://www.w3.org/2000/svg">
<path fill-rule="evenodd" clip-rule="evenodd" d="M0.178889 3.8912C0 4.55882 0 5.37255 0 7V35C0 36.6274 0 37.4412 0.178889 38.1088C0.664342 39.9205 2.07947 41.3357 3.8912 41.8211C4.55883 42 5.37255 42 7.00001 42H21C30.4062 42 38.3679 35.8158 41.0413 27.2916C37.7147 27.1206 35.07 24.3691 35.07 21C35.07 17.6309 37.7147 14.8794 41.0413 14.7084C38.3679 6.18415 30.4062 0 21 0H7C5.37255 0 4.55883 0 3.8912 0.178889C2.07947 0.664342 0.664342 2.07947 0.178889 3.8912ZM18.585 28.875C22.9342 28.875 26.46 25.3492 26.46 21C26.46 16.6508 22.9342 13.125 18.585 13.125C14.2358 13.125 10.71 16.6508 10.71 21C10.71 25.3492 14.2358 28.875 18.585 28.875ZM13.3271 11.9899C14.1272 11.5201 14.3949 10.4906 13.9251 9.69054C13.4552 8.89045 12.4258 8.62272 11.6257 9.09254C10.8256 9.56237 10.5579 10.5918 11.0277 11.3919C11.4975 12.192 12.527 12.4598 13.3271 11.9899ZM13.3035 32.582C14.1036 32.1122 14.3713 31.0827 13.9015 30.2826C13.4317 29.4826 12.4022 29.2148 11.6021 29.6846C10.802 30.1545 10.5343 31.1839 11.0041 31.984C11.4739 32.7841 12.5034 33.0519 13.3035 32.582ZM31.8744 19.7287C32.3442 20.5288 32.0765 21.5583 31.2764 22.0281C30.4763 22.4979 29.4468 22.2302 28.977 21.4301C28.5071 20.63 28.7749 19.6005 29.575 19.1307C30.3751 18.6609 31.4045 18.9286 31.8744 19.7287ZM41.4225 26.25C44.322 26.25 46.6725 23.8995 46.6725 21C46.6725 18.1005 44.322 15.75 41.4225 15.75C38.523 15.75 36.1725 18.1005 36.1725 21C36.1725 23.8995 38.523 26.25 41.4225 26.25Z" fill="#25B679"/>
<path fill-rule="evenodd" clip-rule="evenodd" d="M95.804 2.97998V26.1843H91.5086V2.97998H95.804ZM72.2342 19.4456C72.7944 18.0553 73.0746 16.5353 73.0746 14.8856C73.0746 13.2463 72.7944 11.7367 72.2342 10.3568C71.6843 8.9769 70.9009 7.78893 69.8842 6.7929C68.8777 5.7865 67.6638 5.00316 66.2424 4.4429C64.821 3.88263 63.244 3.6025 61.5113 3.6025H52.8271V26.1843H61.5113C63.244 26.1843 64.821 25.9042 66.2424 25.3439C67.6638 24.7837 68.8777 24.0055 69.8842 23.0095C70.9009 22.0135 71.6843 20.8255 72.2342 19.4456ZM67.8143 11.6952C68.1255 12.6394 68.2812 13.7028 68.2812 14.8856C68.2812 16.0788 68.1255 17.1474 67.8143 18.0916C67.503 19.0357 67.0569 19.8398 66.4759 20.5039C65.8948 21.1575 65.1841 21.6607 64.3437 22.0135C63.5137 22.3558 62.5696 22.527 61.5113 22.527H57.5272V7.25979H61.5113C62.5696 7.25979 63.5137 7.43617 64.3437 7.78893C65.1841 8.14169 65.8948 8.64489 66.4759 9.29853C67.0569 9.95218 67.503 10.7511 67.8143 11.6952ZM78.32 10.4658C77.1787 10.8808 76.136 11.5137 75.1919 12.3644L75.9544 13.734C76.0893 13.9415 76.2553 14.123 76.4525 14.2787C76.66 14.4239 76.9142 14.4966 77.215 14.4966C77.5574 14.4966 77.8583 14.4291 78.1177 14.2942C78.3771 14.149 78.652 13.9985 78.9425 13.8429C79.2434 13.6769 79.591 13.5265 79.9852 13.3916C80.3795 13.2463 80.8723 13.1737 81.4637 13.1737C82.2626 13.1737 82.8748 13.4123 83.3002 13.8896C83.7255 14.3565 83.9382 15.0931 83.9382 16.0995V16.9244C82.1018 16.9659 80.5714 17.1474 79.3472 17.4691C78.1333 17.7803 77.158 18.1798 76.4213 18.6674C75.6951 19.1447 75.1815 19.679 74.8806 20.2704C74.5797 20.8618 74.4293 21.4532 74.4293 22.0446C74.4293 22.7605 74.5434 23.3934 74.7717 23.9433C74.9999 24.4932 75.3215 24.9549 75.7366 25.3284C76.1619 25.6915 76.6651 25.9664 77.2462 26.1532C77.8272 26.34 78.4705 26.4333 79.176 26.4333C79.7466 26.4333 80.2602 26.3866 80.7167 26.2933C81.1836 26.1999 81.6194 26.065 82.024 25.8886C82.4286 25.7019 82.8177 25.4736 83.1912 25.2039C83.5751 24.9341 83.9694 24.6228 84.374 24.2701L84.7164 25.2972C84.8513 25.6604 85.0225 25.899 85.23 26.0131C85.4478 26.1273 85.7591 26.1843 86.1637 26.1843H88.1247V16.0995C88.1247 15.1865 87.9846 14.3461 87.7045 13.5783C87.4243 12.8106 87.0197 12.1517 86.4906 11.6018C85.9718 11.0416 85.3337 10.6058 84.5763 10.2946C83.8293 9.9833 82.9785 9.82767 82.024 9.82767C80.696 9.82767 79.4613 10.0404 78.32 10.4658ZM81.2522 23.2774C79.6368 23.8654 78.0294 23.5235 77.6619 22.5139C77.2945 21.5043 78.3061 20.2093 79.9215 19.6213C81.5368 19.0334 83.1442 19.3752 83.5117 20.3848C83.8792 21.3944 82.8675 22.6895 81.2522 23.2774ZM102.151 10.4658C101.01 10.8808 99.9668 11.5137 99.0226 12.3644L99.7852 13.734C99.9201 13.9415 100.086 14.123 100.283 14.2787C100.491 14.4239 100.745 14.4966 101.046 14.4966C101.388 14.4966 101.689 14.4291 101.948 14.2942C102.208 14.149 102.483 13.9985 102.773 13.8429C103.074 13.6769 103.422 13.5265 103.816 13.3916C104.21 13.2463 104.703 13.1737 105.295 13.1737C106.093 13.1737 106.706 13.4123 107.131 13.8896C107.556 14.3565 107.769 15.0931 107.769 16.0995V16.9244C105.933 16.9659 104.402 17.1474 103.178 17.4691C101.964 17.7803 100.989 18.1798 100.252 18.6674C99.5258 19.1447 99.0123 19.679 98.7114 20.2704C98.4105 20.8618 98.2601 21.4532 98.2601 22.0446C98.2601 22.7605 98.3742 23.3934 98.6024 23.9433C98.8307 24.4932 99.1523 24.9549 99.5673 25.3284C99.9927 25.6915 100.496 25.9664 101.077 26.1532C101.658 26.34 102.301 26.4333 103.007 26.4333C103.577 26.4333 104.091 26.3866 104.547 26.2933C105.014 26.1999 105.45 26.065 105.855 25.8886C106.259 25.7019 106.648 25.4736 107.022 25.2039C107.406 24.9341 107.8 24.6228 108.205 24.2701L108.547 25.2972C108.682 25.6604 108.853 25.899 109.061 26.0131C109.279 26.1273 109.59 26.1843 109.995 26.1843H111.955V16.0995C111.955 15.1865 111.815 14.3461 111.535 13.5783C111.255 12.8106 110.85 12.1517 110.321 11.6018C109.803 11.0416 109.165 10.6058 108.407 10.2946C107.66 9.9833 106.809 9.82767 105.855 9.82767C104.527 9.82767 103.292 10.0404 102.151 10.4658ZM101.512 22.5157C101.88 23.5253 103.487 23.8671 105.102 23.2792C106.718 22.6912 107.729 21.3961 107.362 20.3865C106.994 19.3769 105.387 19.0351 103.772 19.6231C102.156 20.211 101.145 21.5061 101.512 22.5157ZM129.517 2.97998V26.1843H126.872C126.322 26.1843 125.969 25.9353 125.813 25.4373L125.455 24.0366C125.134 24.3894 124.791 24.711 124.428 25.0015C124.075 25.292 123.692 25.5462 123.277 25.7641C122.862 25.9716 122.415 26.1324 121.938 26.2466C121.461 26.3607 120.942 26.4178 120.382 26.4178C119.521 26.4178 118.732 26.2362 118.016 25.8731C117.3 25.5099 116.678 24.9808 116.149 24.2856C115.63 23.5801 115.225 22.719 114.935 21.7022C114.644 20.6854 114.499 19.5234 114.499 18.2161C114.499 17.0229 114.66 15.9128 114.981 14.8856C115.313 13.8585 115.78 12.9714 116.382 12.2244C116.984 11.4773 117.71 10.8911 118.561 10.4658C119.412 10.0404 120.356 9.82767 121.393 9.82767C122.265 9.82767 122.996 9.95737 123.588 10.2167C124.19 10.4761 124.734 10.8289 125.222 11.275V2.97998H129.517ZM135.86 10.4658C134.719 10.8808 133.676 11.5137 132.732 12.3644L133.495 13.734C133.63 13.9415 133.796 14.123 133.993 14.2787C134.2 14.4239 134.455 14.4966 134.755 14.4966C135.098 14.4966 135.399 14.4291 135.658 14.2942C135.917 14.149 136.192 13.9985 136.483 13.8429C136.784 13.6769 137.131 13.5265 137.526 13.3916C137.92 13.2463 138.413 13.1737 139.004 13.1737C139.803 13.1737 140.415 13.4123 140.841 13.8896C141.266 14.3565 141.479 15.0931 141.479 16.0995V16.9244C139.642 16.9659 138.112 17.1474 136.888 17.4691C135.674 17.7803 134.698 18.1798 133.962 18.6674C133.235 19.1447 132.722 19.679 132.421 20.2704C132.12 20.8618 131.97 21.4532 131.97 22.0446C131.97 22.7605 132.084 23.3934 132.312 23.9433C132.54 24.4932 132.862 24.9549 133.277 25.3284C133.702 25.6915 134.206 25.9664 134.787 26.1532C135.368 26.34 136.011 26.4333 136.716 26.4333C137.287 26.4333 137.801 26.3866 138.257 26.2933C138.724 26.1999 139.16 26.065 139.564 25.8886C139.969 25.7019 140.358 25.4736 140.732 25.2039C141.116 24.9341 141.51 24.6228 141.914 24.2701L142.257 25.2972C142.392 25.6604 142.563 25.899 142.77 26.0131C142.988 26.1273 143.3 26.1843 143.704 26.1843H145.665V16.0995C145.665 15.1865 145.525 14.3461 145.245 13.5783C144.965 12.8106 144.56 12.1517 144.031 11.6018C143.512 11.0416 142.874 10.6058 142.117 10.2946C141.37 9.9833 140.519 9.82767 139.564 9.82767C138.236 9.82767 137.002 10.0404 135.86 10.4658ZM135.206 22.5157C135.573 23.5253 137.181 23.8671 138.796 23.2792C140.412 22.6912 141.423 21.3961 141.056 20.3865C140.688 19.3769 139.081 19.0351 137.466 19.6231C135.85 20.211 134.839 21.5061 135.206 22.5157ZM153.002 12.0065C153.324 11.6952 153.656 11.4099 153.998 11.1505C154.351 10.8911 154.719 10.6681 155.103 10.4813C155.497 10.2946 155.918 10.1493 156.364 10.0456C156.82 9.9418 157.313 9.88993 157.842 9.88993C158.714 9.88993 159.487 10.0404 160.161 10.3413C160.835 10.6421 161.401 11.0623 161.857 11.6018C162.324 12.1414 162.672 12.7846 162.9 13.5317C163.139 14.2787 163.258 15.0983 163.258 15.9906V26.1843H158.978V15.9906C158.978 15.0983 158.771 14.4084 158.356 13.9207C157.941 13.4227 157.329 13.1737 156.519 13.1737C155.918 13.1737 155.352 13.3034 154.823 13.5628C154.294 13.8222 153.791 14.1853 153.313 14.6522V26.1843H149.018V10.1389H151.664C152.203 10.1389 152.561 10.3879 152.737 10.886L153.002 12.0065ZM121.379 22.3181C123.269 22.3181 124.802 20.402 124.802 18.0383C124.802 15.6747 123.269 13.7585 121.379 13.7585C119.488 13.7585 117.955 15.6747 117.955 18.0383C117.955 20.402 119.488 22.3181 121.379 22.3181Z" fill="#25B679"/>
<path fill-rule="evenodd" clip-rule="evenodd" d="M106.959 33.503C107.042 33.4288 107.127 33.3618 107.216 33.3019C107.307 33.2391 107.403 33.1863 107.502 33.1435C107.605 33.0979 107.714 33.0636 107.828 33.0408C107.945 33.0151 108.07 33.0023 108.204 33.0023C108.444 33.0023 108.657 33.0437 108.842 33.1264C109.027 33.2091 109.183 33.3247 109.309 33.4731C109.437 33.6214 109.533 33.7983 109.595 34.0038C109.661 34.2092 109.694 34.4346 109.694 34.68V37.4832H108.517V34.68C108.517 34.4346 108.46 34.2449 108.346 34.1108C108.231 33.9738 108.063 33.9053 107.841 33.9053C107.675 33.9053 107.52 33.941 107.374 34.0123C107.229 34.0837 107.09 34.1835 106.959 34.3119V37.4832H105.778V31.1021H106.959V33.503ZM58.1641 35.6301C58.3182 35.2478 58.3952 34.8298 58.3952 34.3761C58.3952 33.9253 58.3182 33.5102 58.1641 33.1307C58.0129 32.7512 57.7974 32.4245 57.5178 32.1506C57.2411 31.8738 56.9072 31.6584 56.5163 31.5044C56.1255 31.3503 55.6918 31.2732 55.2153 31.2732H52.8271V37.4832H55.2153C55.6918 37.4832 56.1255 37.4062 56.5163 37.2521C56.9072 37.0981 57.2411 36.8841 57.5178 36.6102C57.7974 36.3363 58.0129 36.0096 58.1641 35.6301ZM56.9486 33.4987C57.0342 33.7584 57.077 34.0508 57.077 34.3761C57.077 34.7042 57.0342 34.9981 56.9486 35.2577C56.863 35.5174 56.7403 35.7385 56.5805 35.9211C56.4208 36.1009 56.2253 36.2392 55.9942 36.3363C55.766 36.4304 55.5063 36.4775 55.2153 36.4775H54.1197V32.279H55.2153C55.5063 32.279 55.766 32.3275 55.9942 32.4245C56.2253 32.5215 56.4208 32.6599 56.5805 32.8397C56.7403 33.0194 56.863 33.2391 56.9486 33.4987ZM59.8377 33.1606C59.5238 33.2748 59.2371 33.4488 58.9774 33.6828L59.1872 34.0594C59.2242 34.1165 59.2699 34.1664 59.3241 34.2092C59.3812 34.2491 59.4511 34.2691 59.5338 34.2691C59.628 34.2691 59.7107 34.2506 59.782 34.2135C59.8534 34.1735 59.929 34.1322 60.0089 34.0894C60.0916 34.0437 60.1872 34.0023 60.2956 33.9652C60.404 33.9253 60.5396 33.9053 60.7022 33.9053C60.9219 33.9053 61.0902 33.9709 61.2072 34.1022C61.3242 34.2306 61.3827 34.4332 61.3827 34.7099V34.9368C60.8777 34.9482 60.4568 34.9981 60.1202 35.0866C59.7863 35.1721 59.5181 35.282 59.3155 35.4161C59.1158 35.5473 58.9746 35.6943 58.8918 35.8569C58.8091 36.0196 58.7677 36.1822 58.7677 36.3448C58.7677 36.5417 58.7991 36.7157 58.8619 36.867C58.9247 37.0182 59.0131 37.1451 59.1272 37.2479C59.2442 37.3477 59.3826 37.4233 59.5424 37.4747C59.7022 37.526 59.8791 37.5517 60.0731 37.5517C60.23 37.5517 60.3712 37.5389 60.4968 37.5132C60.6252 37.4875 60.745 37.4504 60.8563 37.4019C60.9676 37.3506 61.0746 37.2878 61.1773 37.2136C61.2828 37.1394 61.3913 37.0538 61.5025 36.9568L61.5967 37.2393C61.6338 37.3392 61.6809 37.4048 61.7379 37.4362C61.7978 37.4676 61.8834 37.4832 61.9947 37.4832H62.534V34.7099C62.534 34.4588 62.4955 34.2277 62.4184 34.0166C62.3414 33.8055 62.2301 33.6243 62.0846 33.4731C61.9419 33.319 61.7665 33.1992 61.5582 33.1136C61.3527 33.028 61.1188 32.9852 60.8563 32.9852C60.4911 32.9852 60.1515 33.0437 59.8377 33.1606ZM60.1835 35.6661C59.7522 35.823 59.4875 36.1834 59.5921 36.4709C59.6968 36.7584 60.1312 36.8642 60.5624 36.7072C60.9937 36.5503 61.2585 36.1899 61.1538 35.9024C61.0492 35.6149 60.6148 35.5091 60.1835 35.6661ZM66.1994 33.9781C66.168 34.0266 66.1352 34.0623 66.1009 34.0851C66.0695 34.105 66.0253 34.115 65.9683 34.115C65.9112 34.115 65.8527 34.1008 65.7928 34.0722C65.7329 34.0437 65.6658 34.0137 65.5916 33.9824C65.5174 33.9481 65.4318 33.9167 65.3348 33.8882C65.2407 33.8597 65.1308 33.8454 65.0053 33.8454C64.8141 33.8454 64.6658 33.8854 64.5602 33.9652C64.4546 34.0423 64.4018 34.145 64.4018 34.2734C64.4018 34.3618 64.4318 34.436 64.4917 34.4959C64.5516 34.5559 64.6301 34.6086 64.7271 34.6543C64.827 34.6971 64.9397 34.7385 65.0652 34.7784C65.1908 34.8155 65.3191 34.8569 65.4504 34.9025C65.5845 34.9482 65.7143 35.001 65.8399 35.0609C65.9654 35.1208 66.0767 35.1964 66.1737 35.2877C66.2735 35.3762 66.3534 35.4846 66.4134 35.613C66.4733 35.7385 66.5032 35.8912 66.5032 36.0709C66.5032 36.2849 66.4633 36.4832 66.3834 36.6658C66.3064 36.8456 66.1922 37.0011 66.041 37.1323C65.8898 37.2635 65.7015 37.3663 65.4761 37.4404C65.2507 37.5146 64.991 37.5517 64.6971 37.5517C64.5459 37.5517 64.3961 37.5375 64.2478 37.5089C64.0994 37.4832 63.9582 37.4462 63.8241 37.3976C63.69 37.3463 63.5644 37.2878 63.4474 37.2222C63.3305 37.1566 63.2292 37.0852 63.1436 37.0082L63.4175 36.5674C63.4489 36.516 63.4874 36.4761 63.533 36.4475C63.5815 36.419 63.6429 36.4047 63.7171 36.4047C63.7884 36.4047 63.854 36.4233 63.9139 36.4604C63.9739 36.4946 64.0409 36.5331 64.1151 36.5759C64.1893 36.6159 64.2763 36.6544 64.3762 36.6915C64.4789 36.7257 64.6058 36.7428 64.7571 36.7428C64.8712 36.7428 64.9696 36.73 65.0524 36.7043C65.1351 36.6786 65.2022 36.6444 65.2535 36.6016C65.3049 36.556 65.342 36.506 65.3648 36.4518C65.3905 36.3947 65.4033 36.3363 65.4033 36.2763C65.4033 36.1793 65.3719 36.1009 65.3092 36.0409C65.2492 35.9782 65.1694 35.924 65.0695 35.8783C64.9725 35.8327 64.8598 35.7913 64.7314 35.7542C64.603 35.7171 64.4717 35.6757 64.3376 35.6301C64.2064 35.5844 64.0766 35.5302 63.9482 35.4675C63.8226 35.4047 63.7099 35.3262 63.6101 35.2321C63.5131 35.1351 63.4332 35.0166 63.3704 34.8768C63.3105 34.737 63.2805 34.5673 63.2805 34.3675C63.2805 34.1849 63.3162 34.0123 63.3875 33.8497C63.4589 33.6842 63.5659 33.5387 63.7085 33.4131C63.8512 33.2876 64.0281 33.1877 64.2392 33.1136C64.4532 33.0394 64.7 33.0023 64.9796 33.0023C65.2935 33.0023 65.5788 33.0536 65.8356 33.1564C66.0924 33.2591 66.3035 33.3932 66.469 33.5587L66.1994 33.9781ZM68.2356 37.4661C68.3896 37.5232 68.5665 37.5517 68.7662 37.5517C68.9859 37.5517 69.1985 37.5189 69.4039 37.4533C69.6094 37.3877 69.7934 37.2907 69.956 37.1623L69.6008 36.5973C69.578 36.5602 69.5552 36.5346 69.5323 36.5203C69.5095 36.5032 69.481 36.4946 69.4467 36.4946C69.4211 36.4946 69.3954 36.5017 69.3697 36.516C69.3469 36.5274 69.3212 36.5417 69.2927 36.5588C69.2641 36.5731 69.2299 36.5873 69.1899 36.6016C69.15 36.613 69.1015 36.6187 69.0444 36.6187C68.936 36.6187 68.8518 36.5831 68.7919 36.5117C68.7349 36.4404 68.7063 36.3434 68.7063 36.2207V33.9182H69.8448V33.0964H68.7063V31.7526H68.09C67.9474 31.7526 67.8604 31.8168 67.829 31.9452L67.5893 33.0879L66.8831 33.2163V33.6785C66.8831 33.7584 66.9045 33.8183 66.9473 33.8582C66.993 33.8982 67.0472 33.9182 67.11 33.9182H67.5251V36.2977C67.5251 36.4918 67.5522 36.6658 67.6064 36.8199C67.6606 36.9739 67.7405 37.1052 67.8461 37.2136C67.9517 37.322 68.0815 37.4062 68.2356 37.4661ZM74.3508 33.0708V37.4832H73.6232C73.472 37.4832 73.375 37.4148 73.3322 37.2778L73.2552 36.9697C73.1667 37.0553 73.0754 37.1337 72.9813 37.2051C72.8871 37.2764 72.7858 37.3377 72.6774 37.3891C72.5718 37.4404 72.4563 37.4804 72.3307 37.5089C72.208 37.5375 72.0739 37.5517 71.9284 37.5517C71.6888 37.5517 71.4748 37.5104 71.2865 37.4276C71.101 37.3449 70.9455 37.2293 70.82 37.0809C70.6944 36.9326 70.5988 36.7557 70.5332 36.5502C70.4676 36.3448 70.4348 36.1194 70.4348 35.874V33.0708H71.616V35.874C71.616 36.1194 71.6716 36.3106 71.7829 36.4475C71.897 36.5816 72.0654 36.6487 72.2879 36.6487C72.4534 36.6487 72.6089 36.613 72.7544 36.5417C72.8999 36.4675 73.0383 36.3676 73.1696 36.2421V33.0708H74.3508ZM76.9179 33.2034C76.7353 33.349 76.5741 33.5472 76.4343 33.7983L76.3701 33.3575C76.3501 33.2519 76.3173 33.1778 76.2716 33.135C76.226 33.0922 76.1432 33.0708 76.0234 33.0708H75.3258V37.4832H76.507V34.7827C76.5527 34.6771 76.6012 34.583 76.6525 34.5002C76.7068 34.4175 76.7667 34.3476 76.8323 34.2905C76.8979 34.2334 76.9721 34.1892 77.0548 34.1578C77.1404 34.1264 77.2374 34.1108 77.3459 34.1108C77.4201 34.1108 77.4999 34.1179 77.5855 34.1322C77.6711 34.1436 77.7368 34.1493 77.7824 34.1493C77.8338 34.1493 77.8737 34.1393 77.9022 34.1193C77.9336 34.0965 77.9565 34.0565 77.9707 33.9995L78.0478 33.1264C77.9222 33.0322 77.7596 32.9852 77.5599 32.9852C77.3145 32.9852 77.1005 33.0579 76.9179 33.2034ZM82.6225 37.4832H81.4883C81.4027 37.4832 81.3328 37.4618 81.2786 37.419C81.2273 37.3762 81.1859 37.3263 81.1545 37.2693L80.2857 35.8184C80.26 35.9154 80.2229 36.001 80.1744 36.0752L79.4297 37.2693C79.3955 37.3235 79.3527 37.3734 79.3013 37.419C79.2528 37.4618 79.1901 37.4832 79.113 37.4832H78.0602L79.5581 35.2064L78.1201 33.0708H79.2543C79.3399 33.0708 79.4026 33.0822 79.4426 33.105C79.4825 33.1278 79.5182 33.1649 79.5496 33.2163L80.4141 34.6158C80.4284 34.5673 80.4469 34.5188 80.4697 34.4703C80.4926 34.4189 80.5197 34.369 80.5511 34.3205L81.2144 33.2377C81.2829 33.1264 81.3713 33.0708 81.4798 33.0708H82.5626L81.1245 35.155L82.6225 37.4832ZM85.8006 33.1606C85.5295 33.0551 85.2285 33.0023 84.8975 33.0023C84.5637 33.0023 84.2598 33.0551 83.9859 33.1606C83.7149 33.2662 83.4823 33.4174 83.2883 33.6143C83.0943 33.8083 82.9431 34.0451 82.8347 34.3247C82.7291 34.6044 82.6763 34.9196 82.6763 35.2706C82.6763 35.6215 82.7291 35.9382 82.8347 36.2207C82.9431 36.5003 83.0943 36.7386 83.2883 36.9354C83.4823 37.1323 83.7149 37.2835 83.9859 37.3891C84.2598 37.4947 84.5637 37.5474 84.8975 37.5474C85.2285 37.5474 85.5295 37.4947 85.8006 37.3891C86.0716 37.2835 86.3042 37.1323 86.4982 36.9354C86.6922 36.7386 86.842 36.5003 86.9476 36.2207C87.0531 35.9382 87.1059 35.6215 87.1059 35.2706C87.1059 34.9196 87.0531 34.6044 86.9476 34.3247C86.842 34.0451 86.6922 33.8083 86.4982 33.6143C86.3042 33.4174 86.0716 33.2662 85.8006 33.1606ZM85.6465 36.3149C85.4839 36.546 85.2342 36.6615 84.8975 36.6615C84.5523 36.6615 84.2984 36.546 84.1357 36.3149C83.9731 36.0809 83.8918 35.7342 83.8918 35.2749C83.8918 34.8184 83.9731 34.4745 84.1357 34.2434C84.2984 34.0095 84.5523 33.8925 84.8975 33.8925C85.2342 33.8925 85.4839 34.0095 85.6465 34.2434C85.8091 34.4745 85.8905 34.8184 85.8905 35.2749C85.8905 35.7342 85.8091 36.0809 85.6465 36.3149ZM88.9432 33.5843C89.0317 33.4987 89.123 33.4203 89.2171 33.349C89.3142 33.2776 89.4154 33.2163 89.521 33.1649C89.6294 33.1136 89.745 33.0736 89.8677 33.0451C89.9932 33.0166 90.1287 33.0023 90.2743 33.0023C90.5139 33.0023 90.7265 33.0437 90.9119 33.1264C91.0974 33.2091 91.2529 33.3247 91.3784 33.4731C91.5068 33.6214 91.6024 33.7983 91.6652 34.0038C91.7308 34.2092 91.7636 34.4346 91.7636 34.68V37.4832H90.5867V34.68C90.5867 34.4346 90.5296 34.2449 90.4155 34.1108C90.3014 33.9738 90.133 33.9053 89.9105 33.9053C89.745 33.9053 89.5895 33.941 89.444 34.0123C89.2985 34.0837 89.1601 34.1835 89.0288 34.3119V37.4832H87.8476V33.0708H88.5752C88.7235 33.0708 88.822 33.1392 88.8705 33.2762L88.9432 33.5843ZM96.6373 33.6485V33.2163H95.3448C95.0567 33.0679 94.7243 32.9937 94.3476 32.9937C94.0937 32.9937 93.8583 33.0265 93.6415 33.0922C93.4246 33.1578 93.2363 33.2534 93.0765 33.3789C92.9168 33.5016 92.7912 33.6514 92.6999 33.8283C92.6115 34.0052 92.5672 34.2035 92.5672 34.4232C92.5672 34.6914 92.6329 34.9268 92.7641 35.1294C92.8954 35.3291 93.0737 35.4889 93.2991 35.6087C93.0994 35.7057 92.951 35.827 92.854 35.9725C92.7598 36.118 92.7127 36.2564 92.7127 36.3876C92.7127 36.5502 92.7456 36.6829 92.8112 36.7856C92.8797 36.8855 92.9695 36.9668 93.0808 37.0296C92.8697 37.1123 92.7042 37.2222 92.5844 37.3591C92.4645 37.4961 92.4046 37.663 92.4046 37.8599C92.4046 38.0111 92.4445 38.1566 92.5244 38.2964C92.6043 38.4362 92.7256 38.5589 92.8882 38.6645C93.0537 38.7729 93.2606 38.8585 93.5088 38.9213C93.7599 38.9869 94.0552 39.0197 94.3947 39.0197C94.7371 39.0197 95.0424 38.9755 95.3106 38.887C95.5788 38.7986 95.8042 38.6816 95.9868 38.5361C96.1723 38.3906 96.3135 38.2251 96.4105 38.0396C96.5075 37.8542 96.556 37.663 96.556 37.4661C96.556 37.255 96.5146 37.0824 96.4319 36.9483C96.352 36.8142 96.245 36.7072 96.1109 36.6273C95.9797 36.5445 95.8285 36.4861 95.6573 36.4518C95.4889 36.4147 95.3163 36.389 95.1394 36.3748C94.9654 36.3605 94.7927 36.3519 94.6215 36.3491C94.4532 36.3434 94.302 36.3334 94.1679 36.3191C94.0366 36.302 93.9296 36.2749 93.8469 36.2378C93.767 36.2007 93.7271 36.1408 93.7271 36.0581C93.7271 35.9696 93.787 35.8883 93.9068 35.8141C94.0438 35.8398 94.1907 35.8526 94.3476 35.8526C94.5959 35.8526 94.827 35.8198 95.041 35.7542C95.255 35.6857 95.4404 35.5901 95.5973 35.4675C95.7543 35.3419 95.877 35.1921 95.9654 35.0181C96.0567 34.8412 96.1024 34.6429 96.1024 34.4232C96.1024 34.2634 96.0781 34.1136 96.0296 33.9738L96.3891 33.901C96.4776 33.8811 96.5403 33.8511 96.5774 33.8112C96.6174 33.7712 96.6373 33.717 96.6373 33.6485ZM94.8826 34.9282C94.7685 35.0509 94.5902 35.1122 94.3476 35.1122C94.108 35.1122 93.9296 35.0509 93.8127 34.9282C93.6985 34.8027 93.6415 34.6443 93.6415 34.4531C93.6415 34.2506 93.6985 34.0922 93.8127 33.9781C93.9268 33.8611 94.1051 33.8026 94.3476 33.8026C94.5902 33.8026 94.7685 33.8611 94.8826 33.9781C94.9996 34.0922 95.0581 34.2506 95.0581 34.4531C95.0581 34.6472 94.9996 34.8055 94.8826 34.9282ZM95.3919 37.4747C95.4404 37.5232 95.4647 37.586 95.4647 37.663C95.4647 37.74 95.4461 37.8114 95.409 37.877C95.3748 37.9426 95.3163 37.9982 95.2336 38.0439C95.1508 38.0924 95.0424 38.1295 94.9083 38.1552C94.7742 38.1809 94.6101 38.1937 94.4161 38.1937C94.2278 38.1937 94.0709 38.1809 93.9453 38.1552C93.8198 38.1323 93.7185 38.0995 93.6415 38.0567C93.5644 38.0139 93.5088 37.9626 93.4746 37.9027C93.4432 37.8427 93.4275 37.7771 93.4275 37.7058C93.4275 37.6031 93.4589 37.5118 93.5216 37.4319C93.5873 37.3491 93.67 37.2778 93.7699 37.2179C93.8983 37.2322 94.0295 37.2421 94.1636 37.2479C94.2977 37.2536 94.4275 37.2607 94.5531 37.2693C94.6786 37.275 94.797 37.2849 94.9083 37.2992C95.0196 37.3106 95.1151 37.3306 95.195 37.3591C95.2778 37.3877 95.3434 37.4262 95.3919 37.4747ZM97.1531 33.6828C97.4127 33.4488 97.6994 33.2748 98.0133 33.1606C98.3271 33.0437 98.6667 32.9852 99.0319 32.9852C99.2944 32.9852 99.5284 33.028 99.7338 33.1136C99.9421 33.1992 100.118 33.319 100.26 33.4731C100.406 33.6243 100.517 33.8055 100.594 34.0166C100.671 34.2277 100.71 34.4588 100.71 34.7099V37.4832H100.17C100.059 37.4832 99.9735 37.4676 99.9135 37.4362C99.8565 37.4048 99.8094 37.3392 99.7723 37.2393L99.6781 36.9568C99.5669 37.0538 99.4584 37.1394 99.3529 37.2136C99.2502 37.2878 99.1432 37.3506 99.0319 37.4019C98.9206 37.4504 98.8008 37.4875 98.6724 37.5132C98.5468 37.5389 98.4056 37.5517 98.2487 37.5517C98.0547 37.5517 97.8778 37.526 97.718 37.4747C97.5582 37.4233 97.4198 37.3477 97.3028 37.2479C97.1887 37.1451 97.1003 37.0182 97.0375 36.867C96.9747 36.7157 96.9433 36.5417 96.9433 36.3448C96.9433 36.1822 96.9847 36.0196 97.0675 35.8569C97.1502 35.6943 97.2914 35.5473 97.4912 35.4161C97.6937 35.282 97.9619 35.1721 98.2958 35.0866C98.6324 34.9981 99.0533 34.9482 99.5583 34.9368V34.7099C99.5583 34.4332 99.4998 34.2306 99.3828 34.1022C99.2659 33.9709 99.0975 33.9053 98.8778 33.9053C98.7152 33.9053 98.5797 33.9253 98.4712 33.9652C98.3628 34.0023 98.2672 34.0437 98.1845 34.0894C98.1046 34.1322 98.029 34.1735 97.9577 34.2135C97.8863 34.2506 97.8036 34.2691 97.7094 34.2691C97.6267 34.2691 97.5568 34.2491 97.4997 34.2092C97.4455 34.1664 97.3999 34.1165 97.3628 34.0594L97.1531 33.6828ZM97.7214 36.4709C97.6167 36.1834 97.8815 35.823 98.3128 35.6661C98.744 35.5091 99.1784 35.6149 99.2831 35.9024C99.3877 36.1899 99.123 36.5503 98.6917 36.7072C98.2604 36.8642 97.826 36.7584 97.7214 36.4709ZM104.73 34.1621C104.764 34.1364 104.799 34.1008 104.833 34.0551L105.141 33.6357C104.938 33.4303 104.71 33.2733 104.456 33.1649C104.202 33.0565 103.907 33.0023 103.57 33.0023C103.217 33.0023 102.904 33.0608 102.633 33.1778C102.365 33.2919 102.139 33.4502 101.957 33.6528C101.774 33.8554 101.636 34.0951 101.542 34.3718C101.448 34.6486 101.401 34.9482 101.401 35.2706C101.401 35.6329 101.453 35.9554 101.559 36.2378C101.667 36.5203 101.813 36.7585 101.995 36.9525C102.178 37.1466 102.391 37.2949 102.633 37.3976C102.876 37.4975 103.132 37.5474 103.403 37.5474C103.558 37.5474 103.713 37.536 103.87 37.5132C104.027 37.4932 104.181 37.4561 104.332 37.4019C104.486 37.3449 104.635 37.2693 104.777 37.1751C104.92 37.0781 105.054 36.9568 105.18 36.8113L104.841 36.3833C104.79 36.3149 104.719 36.2806 104.627 36.2806C104.579 36.2806 104.535 36.2906 104.495 36.3106C104.458 36.3277 104.419 36.3505 104.379 36.3791C104.342 36.4076 104.302 36.439 104.259 36.4732C104.217 36.5074 104.165 36.5388 104.105 36.5674C104.048 36.5959 103.98 36.6202 103.9 36.6401C103.823 36.6572 103.73 36.6658 103.622 36.6658C103.308 36.6658 103.06 36.546 102.877 36.3063C102.697 36.0666 102.607 35.7214 102.607 35.2706C102.607 35.0566 102.627 34.864 102.667 34.6928C102.71 34.5216 102.774 34.3761 102.86 34.2563C102.946 34.1364 103.053 34.0451 103.181 33.9824C103.312 33.9167 103.466 33.8839 103.643 33.8839C103.783 33.8839 103.9 33.901 103.994 33.9353C104.088 33.9667 104.17 34.0023 104.238 34.0423C104.306 34.0794 104.366 34.115 104.418 34.1493C104.472 34.1807 104.528 34.1964 104.585 34.1964C104.647 34.1964 104.696 34.1849 104.73 34.1621ZM111.396 33.1606C111.082 33.2748 110.795 33.4488 110.536 33.6828L110.746 34.0594C110.783 34.1165 110.828 34.1664 110.882 34.2092C110.94 34.2491 111.009 34.2691 111.092 34.2691C111.186 34.2691 111.269 34.2506 111.34 34.2135C111.412 34.1735 111.487 34.1322 111.567 34.0894C111.65 34.0437 111.746 34.0023 111.854 33.9652C111.962 33.9253 112.098 33.9053 112.261 33.9053C112.48 33.9053 112.649 33.9709 112.766 34.1022C112.883 34.2306 112.941 34.4332 112.941 34.7099V34.9368C112.436 34.9482 112.015 34.9981 111.679 35.0866C111.345 35.1721 111.077 35.282 110.874 35.4161C110.674 35.5473 110.533 35.6943 110.45 35.8569C110.367 36.0196 110.326 36.1822 110.326 36.3448C110.326 36.5417 110.358 36.7157 110.42 36.867C110.483 37.0182 110.571 37.1451 110.686 37.2479C110.803 37.3477 110.941 37.4233 111.101 37.4747C111.261 37.526 111.437 37.5517 111.631 37.5517C111.788 37.5517 111.93 37.5389 112.055 37.5132C112.184 37.4875 112.303 37.4504 112.415 37.4019C112.526 37.3506 112.633 37.2878 112.736 37.2136C112.841 37.1394 112.95 37.0538 113.061 36.9568L113.155 37.2393C113.192 37.3392 113.239 37.4048 113.296 37.4362C113.356 37.4676 113.442 37.4832 113.553 37.4832H114.092V34.7099C114.092 34.4588 114.054 34.2277 113.977 34.0166C113.9 33.8055 113.788 33.6243 113.643 33.4731C113.5 33.319 113.325 33.1992 113.117 33.1136C112.911 33.028 112.677 32.9852 112.415 32.9852C112.049 32.9852 111.71 33.0437 111.396 33.1606ZM111.697 35.705C111.266 35.8619 111.001 36.2223 111.106 36.5098C111.21 36.7973 111.645 36.9031 112.076 36.7461C112.507 36.5892 112.772 36.2288 112.667 35.9413C112.563 35.6538 112.128 35.548 111.697 35.705Z" fill="#25B679"/>
</svg>
